<svg width="93" height="28" viewBox="0 0 93 28" fill="none" xmlns="http://www.w3.org/2000/svg">
<rect x="0.041748" width="92.6053" height="27.5563" rx="13.7782" fill="#D3167C"/>
<line x1="32.5417" x2="32.5417" y2="28" stroke="#CCCCCC"/>
<line x1="62.5417" x2="62.5417" y2="28" stroke="#CCCCCC"/>
<path d="M23.4805 19.3112L20.3269 16.1562C21.2724 14.9241 21.7139 13.3783 21.5617 11.8326C21.4095 10.2869 20.675 8.85699 19.5073 7.83288C18.3396 6.80878 16.826 6.2672 15.2737 6.318C13.7213 6.36881 12.2464 7.00819 11.1482 8.10646C10.0499 9.20472 9.41053 10.6796 9.35972 12.232C9.30892 13.7843 9.8505 15.2979 10.8746 16.4656C11.8987 17.6333 13.3286 18.3678 14.8744 18.52C16.4201 18.6722 17.9658 18.2307 19.198 17.2852L22.3543 20.4421C22.4284 20.5162 22.5164 20.575 22.6132 20.6152C22.7101 20.6553 22.8139 20.6759 22.9187 20.6759C23.0235 20.6759 23.1273 20.6553 23.2242 20.6152C23.321 20.575 23.409 20.5162 23.4832 20.4421C23.5573 20.368 23.6161 20.28 23.6562 20.1831C23.6963 20.0863 23.717 19.9825 23.717 19.8777C23.717 19.7728 23.6963 19.669 23.6562 19.5722C23.6161 19.4753 23.5573 19.3873 23.4832 19.3132L23.4805 19.3112ZM10.9636 12.4375C10.9636 11.5444 11.2284 10.6713 11.7246 9.92875C12.2208 9.18616 12.926 8.60738 13.7512 8.26561C14.5763 7.92383 15.4842 7.83441 16.3602 8.00864C17.2361 8.18288 18.0407 8.61295 18.6722 9.24447C19.3038 9.87599 19.7338 10.6806 19.9081 11.5565C20.0823 12.4325 19.9929 13.3404 19.6511 14.1656C19.3093 14.9907 18.7306 15.6959 17.988 16.1921C17.2454 16.6883 16.3723 16.9531 15.4792 16.9531C14.282 16.9519 13.1341 16.4757 12.2875 15.6292C11.441 14.7826 10.9648 13.6347 10.9636 12.4375Z" fill="#ECECED"/>
<path fill-rule="evenodd" clip-rule="evenodd" d="M49.7215 7.08438C50.4158 6.39006 51.3575 6 52.3394 6C53.3214 6 54.263 6.39006 54.9574 7.08438C55.6517 7.7787 56.0417 8.72039 56.0417 9.70231C56.0417 10.6842 55.6517 11.6259 54.9574 12.3202L47.457 19.8206C47.0285 20.2491 46.777 20.5006 46.4956 20.7196C46.1651 20.9781 45.8077 21.1995 45.4281 21.3798C45.1071 21.5324 44.7687 21.6455 44.1947 21.8368L41.5602 22.7145L40.926 22.9264C40.6738 23.0105 40.4032 23.0228 40.1444 22.9618C39.8856 22.9008 39.6489 22.7688 39.4609 22.5808C39.2729 22.3928 39.141 22.1562 39.08 21.8974C39.0189 21.6386 39.0312 21.3679 39.1154 21.1157L40.2049 17.8478C40.3963 17.273 40.5094 16.9346 40.662 16.6128C40.843 16.2341 41.0636 15.8767 41.3222 15.5454C41.5404 15.2655 41.7926 15.0133 42.2212 14.5847L49.7215 7.08438ZM41.5325 21.4747L43.7788 20.7251C44.4042 20.5164 44.6699 20.427 44.9174 20.3092C45.2178 20.1653 45.5025 19.9898 45.7658 19.785C45.9816 19.6158 46.1809 19.4189 46.6474 18.9524L52.6328 12.967C51.8121 12.6762 51.0672 12.205 50.4529 11.5881C49.8365 10.9736 49.3658 10.2287 49.0755 9.40818L43.0901 15.3936C42.6236 15.8593 42.4259 16.0578 42.2575 16.2744C42.0528 16.5375 41.877 16.822 41.7333 17.1228C41.6155 17.3703 41.5262 17.6359 41.3174 18.2614L40.5679 20.5093L41.5325 21.4747ZM50.0362 8.44592C50.0639 8.58429 50.1089 8.77247 50.1856 8.99149C50.4169 9.65336 50.7954 10.2541 51.2926 10.7484C51.7866 11.2455 52.3871 11.624 53.0487 11.8553C53.2685 11.932 53.4567 11.9771 53.595 12.0048L54.1185 11.4813C54.5876 11.0089 54.8503 10.3699 54.8491 9.70413C54.848 9.03839 54.583 8.40025 54.1122 7.9295C53.6415 7.45875 53.0034 7.19377 52.3376 7.19261C51.6719 7.19144 51.0328 7.45419 50.5604 7.92329L50.0362 8.44592Z" fill="#ECECED"/>
<path d="M72.2917 20.625C72.2917 21.0891 72.4761 21.5342 72.8043 21.8624C73.1325 22.1906 73.5776 22.375 74.0417 22.375H81.0417C81.5059 22.375 81.951 22.1906 82.2792 21.8624C82.6074 21.5342 82.7917 21.0891 82.7917 20.625V10.125H72.2917V20.625ZM74.0417 11.875H81.0417V20.625H74.0417V11.875ZM80.6042 7.5L79.7292 6.625H75.3542L74.4792 7.5H71.4167V9.25H83.6667V7.5H80.6042Z" fill="#ECECED"/>
</svg>
